<svg width="134" height="133" viewBox="0 0 134 133" fill="none" xmlns="http://www.w3.org/2000/svg">
<path d="M48.5326 119.488L49.6197 119.799L48.5338 123.59L52.6683 124.775L53.7542 120.984L54.8357 121.294L52.4864 129.495L51.4049 129.185L52.415 125.659L48.2805 124.475L47.2704 128.001L46.1832 127.689L48.5326 119.488Z" fill="black"/>
<path d="M41.0161 116.157L41.9815 116.65L39.098 122.296L38.1326 121.803L41.0161 116.157ZM38.4114 123.834C38.3315 123.99 38.217 124.098 38.068 124.158C37.9155 124.216 37.7453 124.197 37.5575 124.101C37.3696 124.005 37.2545 123.879 37.2122 123.721C37.1699 123.564 37.1887 123.406 37.2686 123.25C37.3486 123.093 37.4639 122.988 37.6146 122.933C37.7653 122.879 37.9346 122.899 38.1225 122.995C38.3103 123.091 38.4263 123.216 38.4704 123.37C38.511 123.523 38.4914 123.677 38.4114 123.834Z" fill="black"/>
<path d="M36.3198 111.365L36.5806 112.064C35.9859 112.271 35.5261 112.593 35.201 113.028L34.6383 113.828L33.7707 113.219L34.2593 112.524C34.4861 112.201 34.7929 111.934 35.1796 111.724C35.563 111.511 35.9431 111.391 36.3198 111.365Z" fill="black"/>
<path d="M19.2579 98.6246L14.5981 100.428L13.9721 99.5431L20.2137 97.3886L20.7213 98.1061L17.6888 102.139L22.4775 100.589L22.9851 101.306L18.8718 106.47L18.2492 105.589L21.4031 101.83L16.6757 103.365L16.1716 102.652L19.2579 98.6246Z" fill="black"/>
<path d="M15.1448 87.3454C15.4624 88.144 15.4595 88.8976 15.1361 89.6064C14.809 90.3166 14.2063 90.8465 13.3279 91.1959L13.1428 91.2695C12.5584 91.5019 11.9935 91.5984 11.4481 91.5589C10.8977 91.5172 10.4142 91.348 9.99764 91.0513C9.57604 90.7523 9.27213 90.3687 9.08588 89.9005C8.78124 89.1347 8.79673 88.4391 9.13233 87.8137C9.46792 87.1884 10.1058 86.6887 11.0458 86.3148L11.4651 86.148L13.0525 90.1388C13.6275 89.8933 14.0304 89.5375 14.2612 89.0716C14.487 88.6034 14.5002 88.1189 14.301 87.618C14.1595 87.2623 13.9671 86.9899 13.7237 86.8008C13.4804 86.6118 13.2021 86.4723 12.8889 86.3825L13.1233 85.5767C14.0782 85.7686 14.7521 86.3582 15.1448 87.3454ZM9.91344 89.5713C10.0751 89.9779 10.3597 90.2599 10.767 90.4173C11.1708 90.5762 11.6524 90.5822 12.2119 90.4353L11.0382 87.4844L10.9619 87.5147C10.4617 87.7474 10.1209 88.0427 9.93963 88.4006C9.75469 88.7601 9.74596 89.1503 9.91344 89.5713Z" fill="black"/>
<path d="M12.1145 77.4893L12.333 78.551L3.51777 80.3652L3.29927 79.3035L12.1145 77.4893Z" fill="black"/>
<path d="M10.328 68.4228C10.3174 68.0363 10.1911 67.7017 9.94887 67.4192C9.70668 67.1366 9.40944 66.9845 9.05716 66.9629L9.02912 65.9379C9.3928 65.9475 9.74179 66.063 10.0761 66.2844C10.4104 66.5058 10.6805 66.8071 10.8863 67.1884C11.092 67.5657 11.2007 67.9691 11.2125 68.3987C11.2361 69.2616 10.9679 69.9567 10.4078 70.4839C9.84381 71.0074 9.06199 71.2828 8.06236 71.3101L7.88079 71.3151C7.26383 71.3319 6.71211 71.2337 6.22563 71.0204C5.73914 70.807 5.35737 70.4931 5.08031 70.0787C4.80314 69.6603 4.65666 69.1622 4.64085 68.5843C4.62141 67.8736 4.8181 67.2781 5.2309 66.7979C5.6436 66.3138 6.18924 66.0468 6.86782 65.997L6.89586 67.022C6.48671 67.0645 6.15517 67.2299 5.90124 67.5182C5.64329 67.8027 5.51993 68.1499 5.53114 68.5599C5.5462 69.1105 5.75704 69.5326 6.16366 69.8263C6.56627 70.1162 7.14243 70.2509 7.89215 70.2304L8.09715 70.2248C8.82735 70.2048 9.38553 70.0391 9.77169 69.7276C10.1578 69.4162 10.3433 68.9812 10.328 68.4228Z" fill="black"/>
<path d="M8.29012 58.9037C7.67944 58.7905 7.1523 58.5695 6.7087 58.2409C6.2658 57.9085 5.95139 57.5045 5.76545 57.029C5.58023 56.5497 5.53856 56.0355 5.64043 55.4862C5.79787 54.6374 6.21885 54.0064 6.90337 53.593C7.5886 53.1758 8.41899 53.0577 9.39454 53.2387L9.46943 53.2525C10.0763 53.3651 10.5999 53.5834 11.0404 53.9075C11.4777 54.2269 11.7906 54.6286 11.979 55.1125C12.168 55.5925 12.2105 56.1129 12.1065 56.6737C11.9498 57.5186 11.5288 58.1497 10.8436 58.5669C10.1591 58.9802 9.33288 59.0971 8.36502 58.9176L8.29012 58.9037ZM8.61562 57.8557C9.30696 57.9839 9.89151 57.9275 10.3693 57.6863C10.8478 57.4414 11.1369 57.05 11.2366 56.5123C11.3371 55.9708 11.2056 55.5014 10.8422 55.1043C10.4751 54.7064 9.9093 54.4366 9.145 54.2948C8.46134 54.168 7.878 54.2287 7.39497 54.4768C6.9088 54.7203 6.61585 55.111 6.51612 55.6487C6.41852 56.1748 6.54912 56.6381 6.90792 57.0383C7.26672 57.4386 7.83595 57.7111 8.61562 57.8557Z" fill="black"/>
<path d="M8.84007 44.2308L9.4916 44.4968C9.18781 43.8466 9.20012 43.1627 9.52853 42.4452C9.89759 41.6389 10.4578 41.2316 11.2091 41.2233C11.0199 40.9047 10.9099 40.5536 10.8792 40.1701C10.8502 39.7831 10.9316 39.38 11.1234 38.9609C11.7022 37.6964 12.666 37.36 14.0148 37.9516L17.8774 39.7197L17.4263 40.7053L13.6223 38.9641C13.2102 38.7755 12.8599 38.729 12.5713 38.8245C12.2791 38.9185 12.0314 39.1875 11.8282 39.6314C11.6608 39.9973 11.6319 40.3514 11.7415 40.6937C11.8476 41.0344 12.0764 41.3088 12.4279 41.517L16.2533 43.2679L15.7997 44.2589L12.0223 42.5299C11.1841 42.1462 10.5772 42.3646 10.2016 43.185C9.9057 43.8315 9.97856 44.3997 10.4202 44.8897L14.6291 46.8162L14.1779 47.8019L8.4133 45.1632L8.84007 44.2308Z" fill="black"/>
<path d="M23.3601 32.0141C22.823 32.685 22.1664 33.055 21.3904 33.1243C20.6113 33.1911 19.8528 32.9291 19.1149 32.3382L18.9594 32.2137C18.4684 31.8207 18.1053 31.3773 17.87 30.8837C17.6341 30.3846 17.5422 29.8806 17.5943 29.3719C17.6457 28.8576 17.8289 28.4038 18.1439 28.0104C18.659 27.367 19.2713 27.0366 19.9808 27.0192C20.6903 27.0018 21.4399 27.3093 22.2297 27.9416L22.5819 28.2236L19.8976 31.5763C20.3952 31.9547 20.9036 32.1291 21.4228 32.0994C21.9414 32.0642 22.3691 31.8362 22.706 31.4154C22.9453 31.1166 23.0869 30.8147 23.131 30.5097C23.175 30.2047 23.1587 29.8938 23.0819 29.5772L23.8983 29.3826C24.2035 30.3075 24.0241 31.1847 23.3601 32.0141ZM18.8391 28.5671C18.5657 28.9086 18.4612 29.2953 18.5257 29.7273C18.5871 30.1568 18.82 30.5784 19.2243 30.9922L21.2092 28.5131L21.1451 28.4618C20.6957 28.142 20.2705 27.9918 19.8697 28.0111C19.4658 28.028 19.1223 28.2134 18.8391 28.5671Z" fill="black"/>
<path d="M33.4304 16.8564C33.3291 16.6987 33.2907 16.5376 33.3152 16.3733C33.343 16.207 33.4505 16.0636 33.6379 15.9433C33.8253 15.823 34.0004 15.7849 34.1632 15.8288C34.3294 15.8707 34.4631 15.9705 34.5644 16.1283C34.6636 16.2828 34.6976 16.4443 34.6666 16.6128C34.6367 16.7759 34.528 16.9176 34.3407 17.0379C34.1533 17.1582 33.9793 17.198 33.8185 17.1573C33.6589 17.1112 33.5296 17.0109 33.4304 16.8564Z" fill="black"/>
<path d="M57.164 11.7568L56.0625 12.0128L55.17 8.17174L50.9808 9.14513L51.8733 12.9862L50.7775 13.2408L48.8466 4.93091L49.9424 4.67629L50.7726 8.24908L54.9618 7.27569L54.1316 3.7029L55.2331 3.44696L57.164 11.7568Z" fill="black"/>
<path d="M63.8451 7.77148C63.8451 7.15039 63.9662 6.5918 64.2084 6.0957C64.4545 5.59961 64.7943 5.2168 65.2279 4.94727C65.6654 4.67773 66.1635 4.54297 66.7221 4.54297C67.5854 4.54297 68.2826 4.8418 68.8139 5.43945C69.349 6.03711 69.6166 6.83203 69.6166 7.82422V7.90039C69.6166 8.51758 69.4975 9.07227 69.2592 9.56445C69.0248 10.0527 68.6869 10.4336 68.2455 10.707C67.808 10.9805 67.3041 11.1172 66.7338 11.1172C65.8744 11.1172 65.1772 10.8184 64.642 10.2207C64.1107 9.62305 63.8451 8.83203 63.8451 7.84766V7.77148ZM64.935 7.90039C64.935 8.60352 65.0971 9.16797 65.4213 9.59375C65.7494 10.0195 66.1869 10.2324 66.7338 10.2324C67.2846 10.2324 67.7221 10.0176 68.0463 9.58789C68.3705 9.1543 68.5326 8.54883 68.5326 7.77148C68.5326 7.07617 68.3666 6.51367 68.0346 6.08398C67.7065 5.65039 67.269 5.43359 66.7221 5.43359C66.1869 5.43359 65.7553 5.64648 65.4272 6.07227C65.099 6.49805 64.935 7.10742 64.935 7.90039Z" fill="black"/>
<path d="M77.0413 11.9444L75.974 11.755L77.5465 2.89345L78.6138 3.08284L77.0413 11.9444Z" fill="black"/>
<path d="M87.1494 14.8279C87.1337 14.689 87.1626 14.4625 87.2361 14.1483C86.5829 14.4664 85.928 14.5051 85.2715 14.2646C84.6846 14.0495 84.2628 13.7077 84.006 13.2392C83.7542 12.7684 83.7217 12.278 83.9085 11.7682C84.1356 11.1484 84.5464 10.7539 85.1409 10.5848C85.7404 10.4134 86.4674 10.4843 87.322 10.7975L88.3123 11.1603L88.4837 10.6927C88.614 10.3369 88.6111 10.0155 88.475 9.72852C88.3402 9.43784 88.0656 9.21656 87.6512 9.06469C87.2881 8.93163 86.95 8.91178 86.6371 9.00512C86.3242 9.09846 86.12 9.27533 86.0245 9.53574L85.0012 9.16077C85.1101 8.86368 85.3195 8.6159 85.6293 8.41743C85.9442 8.21663 86.3109 8.10139 86.7295 8.07172C87.1518 8.0434 87.5793 8.10853 88.0121 8.26712C88.6979 8.51845 89.1721 8.88773 89.4345 9.37496C89.6983 9.85852 89.7274 10.4038 89.5216 11.0106L88.5177 13.7505C88.3174 14.297 88.2278 14.7571 88.2489 15.131L88.2167 15.219L87.1494 14.8279ZM85.7446 13.4332C86.0637 13.5502 86.3965 13.5785 86.7431 13.5183C87.0897 13.4581 87.3755 13.3195 87.6006 13.1024L88.0482 11.8811L87.2505 11.5887C86.0034 11.1318 85.2462 11.2682 84.9787 11.9981C84.8618 12.3172 84.8768 12.6056 85.0236 12.8633C85.1705 13.1209 85.4108 13.3109 85.7446 13.4332Z" fill="black"/>
<path d="M93.3675 19.6684L93.0478 18.9944C93.6225 18.7367 94.0531 18.3771 94.3396 17.9156L94.8316 17.0698L95.7484 17.6031L95.3212 18.3374C95.1228 18.6785 94.84 18.9704 94.4728 19.2132C94.109 19.458 93.7405 19.6097 93.3675 19.6684Z" fill="black"/>
<path d="M112.532 29.6042C111.809 30.2487 111.079 30.6009 110.342 30.6608C109.608 30.7181 108.992 30.4668 108.493 29.9068C107.96 29.3089 107.76 28.6582 107.892 27.9548L107.31 28.4027L106.647 27.6589L113.367 21.6717L114.088 22.4811L111.581 24.7146C112.278 24.68 112.882 24.95 113.394 25.5246C113.906 26.0991 114.09 26.7433 113.946 27.4572C113.805 28.1739 113.357 28.8688 112.602 29.5419L112.532 29.6042ZM111.903 28.713C112.454 28.2219 112.785 27.7361 112.895 27.2555C113.006 26.7749 112.883 26.3349 112.527 25.9353C112.052 25.4016 111.462 25.2389 110.759 25.4474L108.711 27.2716C108.436 27.9613 108.533 28.5686 109 29.0936C109.346 29.4815 109.765 29.6495 110.258 29.5977C110.751 29.5458 111.299 29.251 111.903 28.713Z" fill="black"/>
<path d="M114.53 37.9255L113.961 37.0026L119.359 33.6769L119.927 34.5998L114.53 37.9255ZM120.744 32.72C120.894 32.6278 121.048 32.5948 121.206 32.6211C121.367 32.6507 121.502 32.7553 121.613 32.9349C121.724 33.1144 121.756 33.2826 121.71 33.4392C121.665 33.5958 121.567 33.7203 121.417 33.8125C121.268 33.9047 121.114 33.935 120.957 33.9033C120.8 33.8717 120.666 33.7661 120.555 33.5865C120.445 33.4069 120.411 33.2398 120.453 33.0852C120.497 32.9339 120.595 32.8122 120.744 32.72Z" fill="black"/>
<path d="M118.52 46.2404C118.204 45.4413 118.209 44.6876 118.533 43.9795C118.862 43.2699 119.466 42.7413 120.345 42.3936L120.53 42.3204C121.115 42.0891 121.68 41.9938 122.225 42.0343C122.776 42.0771 123.259 42.2473 123.675 42.5449C124.096 42.8447 124.399 43.2289 124.584 43.6975C124.887 44.4639 124.87 45.1595 124.534 45.7842C124.197 46.4089 123.558 46.9072 122.617 47.2793L122.198 47.4452L120.618 43.4512C120.043 43.6956 119.639 44.0505 119.407 44.516C119.181 44.9837 119.166 45.4682 119.365 45.9695C119.505 46.3255 119.697 46.5983 119.94 46.7878C120.183 46.9774 120.461 47.1174 120.774 47.2078L120.538 48.0132C119.584 47.8194 118.911 47.2285 118.52 46.2404ZM123.756 44.025C123.595 43.6181 123.311 43.3356 122.904 43.1773C122.501 43.0176 122.019 43.0106 121.459 43.1564L122.627 46.1096L122.703 46.0795C123.204 45.8479 123.545 45.5533 123.727 45.1956C123.913 44.8366 123.923 44.4464 123.756 44.025Z" fill="black"/>
<path d="M127.768 54.8613L126.988 55.0276C127.669 55.4047 128.074 55.9785 128.203 56.7491C128.424 58.0705 127.79 58.8618 126.301 59.1229L122.169 59.8145L121.99 58.7454L126.128 58.0528C126.578 57.9735 126.894 57.8137 127.075 57.5734C127.258 57.337 127.313 57.0049 127.241 56.5773C127.183 56.2306 127.04 55.9417 126.811 55.7106C126.582 55.4796 126.306 55.3161 125.981 55.2199L121.525 55.9657L121.346 54.8966L127.599 53.85L127.768 54.8613Z" fill="black"/>
<path d="M123.99 68.7197L128.799 70.4648L128.759 71.5715L122.505 69.0706L122.535 68.245L128.954 66.1786L128.914 67.2853L123.99 68.7197Z" fill="black"/>
<path d="M120.878 79.8124C121.081 78.9773 121.519 78.3641 122.193 77.9729C122.871 77.5826 123.669 77.499 124.587 77.7219L124.781 77.7689C125.392 77.9172 125.909 78.1652 126.331 78.5128C126.756 78.8652 127.052 79.2829 127.221 79.7658C127.392 80.2535 127.418 80.7422 127.299 81.2319C127.104 82.0329 126.69 82.5914 126.054 82.9075C125.419 83.2236 124.609 83.2623 123.626 83.0237L123.188 82.9173L124.201 78.7435C123.59 78.6113 123.055 78.6685 122.597 78.9152C122.142 79.1665 121.851 79.5541 121.724 80.078C121.634 80.45 121.633 80.7835 121.723 81.0785C121.812 81.3735 121.958 81.6482 122.162 81.9026L121.505 82.4244C120.836 81.7156 120.628 80.8449 120.878 79.8124ZM126.433 81.0219C126.537 80.5967 126.468 80.2021 126.226 79.8381C125.989 79.4749 125.599 79.1915 125.058 78.9877L124.309 82.0739L124.389 82.0933C124.931 82.1928 125.38 82.149 125.735 81.9618C126.094 81.7755 126.327 81.4622 126.433 81.0219Z" fill="black"/>
<path d="M123.462 92.1885L122.729 91.8744C123.068 92.5752 123.068 93.2776 122.729 93.9814C122.147 95.1886 121.173 95.4695 119.806 94.8241L116.031 93.0062L116.502 92.0296L120.281 93.85C120.695 94.0448 121.045 94.0964 121.332 94.0048C121.617 93.9167 121.854 93.6773 122.042 93.2867C122.195 92.9699 122.244 92.6512 122.19 92.3305C122.137 92.0099 122.005 91.7165 121.795 91.4506L117.725 89.4904L118.195 88.5137L123.907 91.2647L123.462 92.1885Z" fill="black"/>
<path d="M111.743 99.7345L112.376 98.855L117.52 102.562L116.886 103.441L111.743 99.7345ZM118.935 103.474C119.078 103.576 119.168 103.706 119.204 103.862C119.239 104.022 119.194 104.187 119.071 104.358C118.947 104.529 118.805 104.624 118.642 104.642C118.48 104.66 118.328 104.617 118.185 104.515C118.043 104.412 117.956 104.282 117.925 104.125C117.894 103.967 117.94 103.803 118.063 103.632C118.186 103.461 118.327 103.365 118.486 103.345C118.643 103.328 118.793 103.371 118.935 103.474Z" fill="black"/>
<path d="M110.001 106.992C110.679 107.689 111.058 108.411 111.138 109.155C111.221 109.902 110.995 110.535 110.459 111.055C109.927 111.572 109.328 111.799 108.663 111.737L110.966 114.108L110.188 114.863L103.918 108.407L104.633 107.713L105.144 108.164C105.085 107.48 105.333 106.869 105.888 106.33C106.415 105.819 107.054 105.617 107.807 105.725C108.557 105.835 109.269 106.238 109.944 106.933L110.001 106.992ZM109.138 107.659C108.637 107.143 108.139 106.843 107.643 106.758C107.147 106.674 106.711 106.814 106.335 107.178C105.842 107.657 105.697 108.228 105.9 108.891L107.929 110.981C108.578 111.184 109.143 111.051 109.625 110.583C110.006 110.213 110.16 109.777 110.088 109.276C110.015 108.775 109.698 108.236 109.138 107.659Z" fill="black"/>
<path d="M96.3991 113.844C97.1272 113.387 97.869 113.254 98.6245 113.444C99.3821 113.638 100.012 114.135 100.514 114.936L100.62 115.105C100.954 115.638 101.151 116.176 101.21 116.719C101.269 117.268 101.189 117.774 100.973 118.238C100.755 118.706 100.432 119.074 100.005 119.342C99.307 119.78 98.62 119.89 97.9444 119.673C97.2687 119.456 96.6622 118.918 96.1248 118.061L95.8852 117.679L99.5241 115.398C99.1789 114.876 98.7563 114.544 98.2563 114.401C97.7551 114.264 97.2761 114.338 96.8194 114.624C96.4951 114.828 96.2619 115.066 96.1198 115.339C95.9777 115.613 95.8908 115.912 95.8589 116.236L95.0241 116.151C95.0405 115.177 95.4989 114.408 96.3991 113.844ZM99.5322 118.587C99.9029 118.355 100.129 118.024 100.21 117.595C100.294 117.169 100.213 116.695 99.9674 116.171L97.2767 117.858L97.3202 117.927C97.6393 118.377 97.9912 118.659 98.376 118.773C98.7629 118.89 99.1483 118.828 99.5322 118.587Z" fill="black"/>
<path d="M81.8977 124.838C81.9414 125.02 81.9246 125.185 81.8474 125.332C81.7663 125.48 81.6175 125.58 81.401 125.632C81.1845 125.684 81.0066 125.662 80.8673 125.567C80.7242 125.473 80.6308 125.334 80.5871 125.152C80.5444 124.973 80.5654 124.81 80.6503 124.661C80.7322 124.517 80.8815 124.419 81.098 124.367C81.3145 124.315 81.492 124.335 81.6304 124.426C81.7658 124.522 81.855 124.659 81.8977 124.838Z" fill="black"/>
</svg>
